<!DOCTYPE svg PUBLIC "-//W3C//DTD SVG 1.1//EN" "http://www.w3.org/Graphics/SVG/1.1/DTD/svg11.dtd">
<!-- Uploaded to: SVG Repo, www.svgrepo.com, Transformed by: SVG Repo Mixer Tools -->
<svg fill="#0a2971" width="800px" height="800px" viewBox="0 0 512 512" version="1.1" xml:space="preserve" xmlns="http://www.w3.org/2000/svg" xmlns:xlink="http://www.w3.org/1999/xlink" stroke="#0a2971">
<g id="SVGRepo_bgCarrier" stroke-width="0"/>
<g id="SVGRepo_tracerCarrier" stroke-linecap="round" stroke-linejoin="round"/>
<g id="SVGRepo_iconCarrier"> <g id="_x33_99_x2C__ad_x2C__advertisement_x2C__leaflet_x2C__magazine_x2C__page"> <g> <path d="M281.42,223.697l-31.996,31.996c-1.469,1.469-3.855,1.469-5.324,0 l-31.964-31.996l-18.17,18.17l52.797,52.828l52.827-52.828L281.42,223.697z M286.742,218.375l20.831,20.831 c1.469,1.468,1.469,3.854,0,5.323l-58.149,58.148c-1.469,1.469-3.855,1.469-5.324,0l-58.119-58.148 c-1.467-1.469-1.467-3.855,0-5.323l20.833-20.831l-20.833-20.831c-1.467-1.469-1.467-3.854,0-5.322l58.119-58.119 c1.469-1.468,3.855-1.468,5.324,0l58.149,58.119c1.469,1.469,1.469,3.854,0,5.322L286.742,218.375z M190.142,59.71h199.899 c2.079,0,3.762,1.683,3.762,3.763v20.066c0,2.08-1.683,3.763-3.762,3.763H190.142c-2.08,0-3.762-1.683-3.762-3.763V63.473 C186.379,61.393,188.062,59.71,190.142,59.71z M164.722,116.178H78.339v300.567h336.907V26.002H168.484v86.413 C168.484,114.495,166.802,116.178,164.722,116.178z M83.662,108.652h77.298V31.354L83.662,108.652z M386.279,67.235H193.904 v12.541h192.375V67.235z M249.424,181.087l31.996,31.996l18.169-18.2l-52.827-52.796l-52.797,52.796l18.17,18.2l31.964-31.996 C245.569,179.619,247.956,179.619,249.424,181.087z M318.921,197.085c1.438-1.468,3.855-1.468,5.292,0 c1.469,1.468,1.469,3.854,0,5.323l-15.936,15.937l18.873,18.873c1.467,1.468,1.467,3.854,0,5.323 c-1.469,1.468-3.855,1.468-5.324,0l-21.534-21.535c-1.437-1.468-1.437-3.854,0-5.323L318.921,197.085z M170.381,202.408 c-1.469-1.469-1.469-3.855,0-5.323s3.854-1.468,5.322,0l18.599,18.598c1.469,1.469,1.469,3.855,0,5.323l-21.535,21.535 c-1.468,1.468-3.855,1.468-5.324,0c-1.467-1.469-1.467-3.855,0-5.323l18.874-18.873L170.381,202.408z M377.225,317.82 c2.049,0,3.762,1.682,3.762,3.762c0,2.081-1.713,3.764-3.762,3.764H224.372c-2.081,0-3.764-1.683-3.764-3.764 c0-2.08,1.683-3.762,3.764-3.762H377.225z M377.225,339.416c2.049,0,3.762,1.682,3.762,3.762c0,2.081-1.713,3.764-3.762,3.764 H266.308c-2.079,0-3.762-1.683-3.762-3.764c0-2.08,1.683-3.762,3.762-3.762H377.225z M377.225,361.135 c2.049,0,3.762,1.682,3.762,3.762c0,2.049-1.713,3.762-3.762,3.762H224.372c-2.081,0-3.764-1.713-3.764-3.762 c0-2.08,1.683-3.762,3.764-3.762H377.225z M377.225,380.252c2.049,0,3.762,1.684,3.762,3.762c0,2.081-1.713,3.763-3.762,3.763 H224.372c-2.081,0-3.764-1.682-3.764-3.763c0-2.078,1.683-3.762,3.764-3.762H377.225z M52.492,285.519 c0,2.05-1.683,3.731-3.764,3.731c-2.049,0-3.762-1.682-3.762-3.731V39.491c0-2.081,1.713-3.763,3.762-3.763l98.773,0.031 c2.05,0,3.731,1.65,3.731,3.731c0,2.05-1.681,3.731-3.731,3.731H52.492V285.519z M157.075,440.787 c-2.08,0-3.762-1.682-3.762-3.762c0-2.079,1.683-3.763,3.762-3.763h275.025v-79.257c0-2.079,1.683-3.762,3.763-3.762 c2.081,0,3.762,1.683,3.762,3.762v83.02c0,2.08-1.681,3.762-3.762,3.762H157.075z M53.929,354.006 c0-2.079,1.683-3.762,3.762-3.762c2.079,0,3.762,1.683,3.762,3.762v79.257h54.02c2.049,0,3.732,1.684,3.732,3.763 c0,2.08-1.683,3.762-3.732,3.762H57.691c-2.08,0-3.762-1.682-3.762-3.762V354.006z M456.511,454.981 c2.079,0,3.763,1.683,3.763,3.763c0,2.079-1.684,3.762-3.763,3.762H169.158c-2.081,0-3.762-1.683-3.762-3.762 c0-2.08,1.681-3.763,3.762-3.763H456.511z M288.24,478.474c2.08,0,3.763,1.682,3.763,3.763c0,2.079-1.683,3.763-3.763,3.763 H89.382c-2.05,0-3.732-1.684-3.732-3.763c0-2.081,1.683-3.763,3.732-3.763H288.24z M69.039,478.474 c2.082,0,3.762,1.682,3.762,3.763c0,2.079-1.681,3.763-3.762,3.763H44.171c-2.079,0-3.762-1.684-3.762-3.763 c0-2.081,1.683-3.763,3.762-3.763H69.039z M467.859,478.015c2.049,0,3.731,1.683,3.731,3.762c0,2.05-1.683,3.763-3.731,3.763 h-94.244c-2.08,0-3.763-1.713-3.763-3.763c0-2.079,1.683-3.762,3.763-3.762H467.859z M217.458,218.375l29.304,29.336 l29.333-29.336l-29.333-29.334L217.458,218.375z" style="fill-rule:evenodd;clip-rule:evenodd;"/> </g> </g> <g id="Layer_1"/> </g>
</svg>