<!DOCTYPE svg PUBLIC "-//W3C//DTD SVG 1.1//EN" "http://www.w3.org/Graphics/SVG/1.1/DTD/svg11.dtd">
<!-- Uploaded to: SVG Repo, www.svgrepo.com, Transformed by: SVG Repo Mixer Tools -->
<svg version="1.1" id="Layer_1" xmlns="http://www.w3.org/2000/svg" xmlns:xlink="http://www.w3.org/1999/xlink" viewBox="0 0 392.469 392.469" xml:space="preserve" width="800px" height="800px" fill="#000000">
<g id="SVGRepo_bgCarrier" stroke-width="0"/>
<g id="SVGRepo_tracerCarrier" stroke-linecap="round" stroke-linejoin="round"/>
<g id="SVGRepo_iconCarrier"> <rect x="39.79" y="22.174" style="fill:#14205c;" width="269.511" height="85.075"/> <path style="fill:#14205c;" d="M212.008,355.362V243.394h-30.836v111.968c0,8.469,6.853,15.386,15.386,15.386 C205.091,370.747,212.008,363.895,212.008,355.362z"/> <g> <path style="fill:#14205c;" d="M381.382,53.786h-50.23l0.065-42.085c0-6.012-4.848-10.925-10.925-10.925L29.059,0 c-6.012,0-10.925,4.848-10.925,10.925l-0.065,42.99h-7.046c-6.012,0-10.925,4.848-10.925,10.925 c0,6.012,4.848,10.925,10.925,10.925h6.982l-0.065,42.085c0,6.012,4.848,10.925,10.925,10.925h14.287v99.168 c0,6.012,4.848,10.925,10.925,10.925s10.925-4.848,10.925-10.925v-99.232l24.954,0.065v33.099c0,6.012,4.848,10.925,10.925,10.925 c6.077,0,10.925-4.848,10.925-10.925v-33.099l65.81,0.129v32.84c0,6.012,4.848,10.925,10.925,10.925 c6.012,0,10.925-4.848,10.925-10.925v-32.711l120.824,0.323c6.012,0,10.925-4.848,10.925-10.925l0.065-42.99h39.434v58.634 l-177.39,53.657c-4.655,1.422-7.758,5.624-7.758,10.408v23.337H170.57c-6.012,0-10.925,4.848-10.925,10.925v122.893 c0,20.493,16.679,37.172,37.172,37.172s37.172-16.679,37.172-37.172V232.404c0-6.012-4.848-10.925-10.925-10.925h-15.838v-15.192 l177.39-53.657c4.655-1.422,7.758-5.624,7.758-10.408V64.646C392.307,58.634,387.329,53.786,381.382,53.786z M309.236,107.572 l-269.511-0.711l0.259-85.075l269.511,0.711L309.236,107.572z M212.008,355.362c0,8.469-6.853,15.386-15.386,15.386 c-8.533,0-15.386-6.853-15.386-15.386V243.394h30.836v111.968H212.008z"/> <path style="fill:#14205c;" d="M64.162,60.509h35.362c6.012,0,10.925-4.848,10.925-10.925c0-6.012-4.848-10.925-10.925-10.925 H64.162c-6.012,0-10.925,4.848-10.925,10.925C53.301,55.661,58.15,60.509,64.162,60.509z"/> <path style="fill:#14205c;" d="M249.503,55.725h35.362c6.012,0,10.925-4.848,10.925-10.925s-4.848-10.925-10.925-10.925h-35.362 c-6.012,0-10.925,4.848-10.925,10.925S243.491,55.725,249.503,55.725z"/> <path style="fill:#14205c;" d="M169.535,95.483h35.362c6.012,0,10.925-4.848,10.925-10.925c0-6.077-4.848-10.925-10.925-10.925 h-35.362c-6.012,0-10.925,4.848-10.925,10.925C158.61,90.634,163.588,95.483,169.535,95.483z"/> </g> </g>
</svg>